<?xml version="1.0" encoding="UTF-8" standalone="no"?>
<svg width="12px" height="15px" viewBox="0 0 12 15" version="1.1" xmlns="http://www.w3.org/2000/svg" xmlns:xlink="http://www.w3.org/1999/xlink">
    <!-- Generator: Sketch 39.1 (31720) - http://www.bohemiancoding.com/sketch -->
    <title>age</title>
    <desc>Created with Sketch.</desc>
    <defs></defs>
    <g id="Symbols" stroke="none" stroke-width="1" fill="none" fill-rule="evenodd">
        <g id="age" fill="#909FD6">
            <path d="M5.99666852,4.09090909 C6.73292615,4.09090909 7.32926152,3.48068182 7.32926152,2.72727273 C7.32926152,2.47159091 7.25930039,2.22954545 7.13936702,2.025 L5.99666852,0 L4.85397002,2.025 C4.73403665,2.22954545 4.66407551,2.47159091 4.66407551,2.72727273 C4.66407551,3.48068182 5.26041088,4.09090909 5.99666852,4.09090909 L5.99666852,4.09090909 Z M9.05830094,10.8988636 L8.3420322,10.1659091 L7.62243198,10.8988636 C6.75291505,11.7886364 5.23375902,11.7886364 4.36424209,10.8988636 L3.64797335,10.1659091 L2.92837313,10.8988636 C2.49861188,11.3454545 1.92226541,11.5909091 1.30594114,11.5909091 C0.82287618,11.5909091 0.373126041,11.4340909 0,11.1715909 L0,14.3181818 C0,14.6931811 0.299833426,15 0.666296502,15 L11.3270405,15 C11.6935036,15 11.993337,14.6931811 11.993337,14.3181818 L11.993337,11.1715909 C11.620211,11.4340909 11.1737923,11.5909091 10.6873959,11.5909091 C10.0710716,11.5909091 9.49472515,11.3454545 9.05830094,10.8988636 L9.05830094,10.8988636 Z M9.99444753,6.13636364 L6.66296502,6.13636364 L6.66296502,4.77272727 L5.33037202,4.77272727 L5.33037202,6.13636364 L1.99888951,6.13636364 C0.896169128,6.13636364 0,7.05340909 0,8.18181818 L0,9.23181818 C0,9.96818182 0.586340922,10.5681818 1.30594114,10.5681818 C1.65574681,10.5681818 1.98223209,10.4284091 2.2287618,10.1761364 L3.65463631,8.72045455 L5.07717934,10.1727273 C5.57023876,10.6772727 6.42976124,10.6772727 6.92282066,10.1727273 L8.34869517,8.72045455 L9.7712382,10.1727273 C10.0177679,10.425 10.3442532,10.5647727 10.6940589,10.5647727 C11.4136591,10.5647727 12,9.96477273 12,9.22840909 L12,8.18181818 C11.993337,7.05340909 11.0971716,6.13636364 9.99444753,6.13636364 L9.99444753,6.13636364 Z" id="Page-1"></path>
        </g>
    </g>
</svg>