<?xml version="1.0" encoding="UTF-8" standalone="no"?>
<svg width="15px" height="17px" viewBox="0 0 15 17" version="1.1" xmlns="http://www.w3.org/2000/svg" xmlns:xlink="http://www.w3.org/1999/xlink">
    <!-- Generator: Sketch 39.1 (31720) - http://www.bohemiancoding.com/sketch -->
    <title>alert</title>
    <desc>Created with Sketch.</desc>
    <defs></defs>
    <g id="Symbols" stroke="none" stroke-width="1" fill="none" fill-rule="evenodd">
        <g id="alert" fill="#FFFFFF">
            <path d="M5.49803922,15.4245833 C5.49803922,16.2954171 6.19607843,17 7.05882353,17 C7.92156863,17 8.61960784,16.2954171 8.61960784,15.4245833 L5.49803922,15.4245833 L5.49803922,15.4245833 Z M12.454902,12.1075 L12.454902,7.5 C12.454902,4.92708333 10.6901961,2.77375 8.30588235,2.20375 L8.30588235,1.63375 C8.30588235,0.937083333 7.74901961,0.375 7.05882353,0.375 C6.36862745,0.375 5.81176471,0.937083333 5.81176471,1.63375 L5.81176471,2.20375 C3.42745098,2.77375 1.6627451,4.92708333 1.6627451,7.5 L1.6627451,12.1075 L0,13.7858333 L0,14.625 L14.1176471,14.625 L14.1176471,13.7858333 L12.454902,12.1075 L12.454902,12.1075 Z" id="Page-1"></path>
        </g>
    </g>
</svg>