<?xml version="1.0" encoding="UTF-8" standalone="no"?>
<svg width="104px" height="30px" viewBox="0 0 104 30" version="1.1" xmlns="http://www.w3.org/2000/svg" xmlns:xlink="http://www.w3.org/1999/xlink">
    <!-- Generator: Sketch 39.1 (31720) - http://www.bohemiancoding.com/sketch -->
    <title>logo</title>
    <desc>Created with Sketch.</desc>
    <defs></defs>
    <g id="Symbols" stroke="none" stroke-width="1" fill="none" fill-rule="evenodd">
        <g id="logo" fill="#FFFFFF">
            <g id="CCAP-Logo">
                <path d="M7.57463038,0.00451612903 C3.55818866,0.165806452 -0.0623512194,2.90967742 0.00081442476,6.76290323 C2.24415185,4.23193548 4.79789418,1.95548387 7.57463038,0.00451612903" id="Fill-1"></path>
                <path d="M0.0237837499,7.21516129 C0.126826695,8.55612903 0.516667185,9.9483871 1.11642179,11.3548387 C4.16974694,7.27516129 8.1175997,3.79870968 12.5615261,1.25354839 C11.1642255,0.421935484 9.63325614,0.0303225806 8.13514571,0 C5.14243406,2.05483871 2.40206596,4.48967742 0.0237837499,7.21516129" id="Fill-2"></path>
                <path d="M14.4111948,24.0870968 C14.1403482,25.2980645 14.1690598,26.4748387 14.4778696,27.5451613 C16.0544586,28.9209677 17.1135997,29.7467742 17.1486917,29.7780645 L17.1486917,29.7841935 L17.1522009,29.7812903 L17.1547531,29.7841935 C17.1547531,29.7841935 17.60425,29.3832258 18.3351212,28.686129 C18.071931,28.4725806 17.829158,28.2377419 17.621477,27.973871 C16.7677837,26.8874194 16.4825813,25.4812903 16.8188267,24.0151613 C17.5532071,20.8129032 21.0553911,18.2074194 24.6255261,18.2074194 C25.5277101,18.2074194 26.3727899,18.3787097 27.1138696,18.6964516 C27.6105813,17.9870968 28.0801764,17.2674194 28.5143604,16.5451613 C27.5196611,16.1203226 26.3881028,15.8922581 25.1831703,15.8922581 C20.255293,15.8922581 15.4228022,19.5683871 14.4111948,24.0870968" id="Fill-3"></path>
                <path d="M8.70108436,22.0122581 C9.52606596,22.8864516 10.3491334,23.7129032 11.1402991,24.4790323 C11.1670966,24.3254839 11.1945322,24.1716129 11.2277101,24.0170968 C12.5959801,17.6383871 19.1215015,12.4487097 25.7739923,12.4487097 C27.3722745,12.4487097 28.8560291,12.7448387 30.1697469,13.3054839 C30.395931,12.7532258 30.5898942,12.206129 30.7407899,11.6687097 C30.8830721,11.1616129 30.9778206,10.6667742 31.0365199,10.1845161 C29.6376242,9.71935484 28.107612,9.47451613 26.4812561,9.47451613 C18.8079064,9.47451613 11.2726917,14.9345161 8.70108436,22.0122581" id="Fill-4"></path>
                <path d="M11.5397101,24.0854839 C11.4918574,24.3077419 11.4535752,24.5283871 11.4197592,24.7483871 C12.368839,25.6587097 13.2640046,26.4745161 14.0538942,27.1725806 C13.8439801,26.1787097 13.8551457,25.11 14.0998328,24.016129 C15.142704,19.3587097 20.1146058,15.5696774 25.1831703,15.5696774 C26.4487163,15.5696774 27.6380169,15.8125806 28.6821641,16.266129 C29.2053543,15.3748387 29.6641028,14.4829032 30.0427776,13.6019355 C28.7686181,13.0583871 27.327293,12.7712903 25.7739923,12.7712903 C19.2634647,12.7712903 12.8776733,17.8467742 11.5397101,24.0854839" id="Fill-5"></path>
                <path d="M1.26317025,11.6909677 C1.8377224,12.97 2.57848314,14.2577419 3.42611504,15.5241935 C6.36937884,10.8109677 10.7179187,6.87709677 15.7092807,4.33935484 C14.899931,3.09064516 13.928839,2.13645161 12.8703359,1.44677419 C8.34920706,4.00645161 4.33882669,7.53677419 1.26317025,11.6909677" id="Fill-6"></path>
                <path d="M20.3025077,24.0880645 C20.151293,24.7477419 20.2773052,25.3777419 20.6578942,25.8619355 C20.7315874,25.9558065 20.8167653,26.04 20.9064095,26.1196774 C22.1560046,24.8174194 23.5816979,23.2464516 24.9646426,21.5374194 C24.6625322,21.4309677 24.328839,21.3712903 23.9731334,21.3712903 C22.2935015,21.3712903 20.6470476,22.5903226 20.3025077,24.0880645" id="Fill-7"></path>
                <path d="M3.6213543,15.8132258 C4.36849541,16.9064516 5.19092485,17.9829032 6.05163651,19.0232258 C9.94398007,11.2616129 18.5006917,5.55354839 27.2009617,5.55354839 C28.2476611,5.55354839 29.2615015,5.63870968 30.24025,5.79806452 C28.2951948,2.54903226 23.2425813,1.81064516 16.9464341,6.83096774 C16.6424095,6.00903226 16.2831948,5.27064516 15.8812316,4.60967742 C10.8857224,7.14096774 6.53941565,11.0858065 3.6213543,15.8132258" id="Fill-8"></path>
                <path d="M17.1298696,24.0880645 C16.8156365,25.456129 17.0791457,26.7651613 17.8712684,27.7732258 C18.072888,28.0296774 18.3092807,28.2577419 18.5680046,28.4635484 C19.1479801,27.9051613 19.8756611,27.186129 20.6837347,26.3506452 C20.5845199,26.2612903 20.4900905,26.1670968 20.4081028,26.0625806 C19.9659433,25.4996774 19.8179187,24.7725806 19.9921028,24.0151613 C20.3679064,22.3793548 22.1537715,21.0487097 23.9731334,21.0487097 C24.4066795,21.0487097 24.8131089,21.1287097 25.1764709,21.2732258 C25.7746304,20.5251613 26.3613052,19.753871 26.9205445,18.9674194 C26.2346549,18.6841935 25.4572071,18.53 24.6255261,18.53 C21.1951212,18.53 17.8323482,21.0232258 17.1298696,24.0880645" id="Fill-9"></path>
                <path d="M6.2733543,19.2893548 C6.98508436,20.1387097 7.71946473,20.9619355 8.45480215,21.7493548 C11.1246672,14.6251613 18.7354893,9.15193548 26.4812561,9.15193548 C28.1168635,9.15193548 29.6583604,9.39354839 31.0709739,9.85483871 C31.1883727,8.46193548 30.9589985,7.2016129 30.4367653,6.16 C29.3986795,5.97580645 28.3188022,5.87612903 27.2009617,5.87612903 C18.5702377,5.87612903 10.081796,11.5687097 6.2733543,19.2893548" id="Fill-10"></path>
                <path d="M41.5692316,10.5058065 C41.5440291,8.98032258 40.5512439,8.17967742 39.0678083,8.17967742 C36.3654034,8.17967742 35.0577469,10.6454839 35.0577469,13.1112903 C35.0577469,14.9670968 36.1641028,16.1619355 38.0246181,16.1619355 C39.4573298,16.1619355 40.6265322,15.196129 41.0664586,13.6070968 L41.9214279,13.6070968 C41.506385,15.4629032 40.1866058,16.8990323 37.8861641,16.8990323 C35.5480782,16.8990323 34.2030966,15.3229032 34.2030966,13.0348387 C34.2030966,10.1370968 36.0004463,7.44258065 39.08025,7.44258065 C40.9659678,7.44258065 42.3986795,8.48483871 42.4242009,10.5058065 L41.5692316,10.5058065" id="Fill-11"></path>
                <path d="M47.6784341,16.7083871 L46.949158,16.7083871 L47.1756611,15.5135484 L47.1504586,15.5135484 C46.6601273,16.2887097 45.805477,16.8990323 44.8375752,16.8990323 C43.7060169,16.8990323 42.876569,16.3906452 42.876569,15.1322581 C42.876569,14.9290323 42.9142132,14.6619355 42.9770598,14.3567742 L43.8696733,10.1496774 L44.661477,10.1496774 L43.7564218,14.3822581 C43.7060169,14.5858065 43.6683727,14.8270968 43.6683727,15.0432258 C43.6683727,15.9077419 44.3220414,16.2254839 45.026115,16.2254839 C46.169796,16.2254839 47.2133052,15.1832258 47.5651825,13.5180645 L48.2816979,10.1496774 L49.0735015,10.1496774 L47.6784341,16.7083871" id="Fill-12"></path>
                <polyline id="Fill-13" points="51.1729617 7.63290323 51.9647653 7.63290323 50.0289617 16.7083871 49.236839 16.7083871 51.1729617 7.63290323"></polyline>
                <path d="M52.2413543,10.1496774 L53.4102377,10.1496774 L53.8249617,8.16677419 L54.6167653,8.16677419 L54.2023604,10.1496774 L55.4969371,10.1496774 L55.3712439,10.8235484 L54.0514647,10.8235484 L53.1588512,15.0306452 C53.0960046,15.3354839 53.0708022,15.45 53.0708022,15.6535484 C53.0708022,15.8822581 53.1840537,16.1112903 53.4858451,16.1112903 C53.8000782,16.1112903 54.1015506,16.0854839 54.4161028,16.0348387 L54.2776488,16.733871 C54.0138206,16.7590323 53.7372316,16.7845161 53.4730844,16.7845161 C52.8822623,16.7845161 52.2789985,16.6322581 52.2789985,15.8441935 C52.2789985,15.7041935 52.3038819,15.4629032 52.3670476,15.1706452 L53.2596611,10.8235484 L52.0904586,10.8235484 L52.2413543,10.1496774" id="Fill-14"></path>
                <path d="M60.4745813,16.7083871 L59.7453052,16.7083871 L59.9721273,15.5135484 L59.9466058,15.5135484 C59.4562745,16.2887097 58.6019433,16.8990323 57.6337224,16.8990323 C56.5024831,16.8990323 55.6727163,16.3906452 55.6727163,15.1322581 C55.6727163,14.9290323 55.7103604,14.6619355 55.7732071,14.3567742 L56.6658206,10.1496774 L57.4579433,10.1496774 L56.552888,14.3822581 C56.5024831,14.5858065 56.4645199,14.8270968 56.4645199,15.0432258 C56.4645199,15.9077419 57.1181887,16.2254839 57.8222623,16.2254839 C58.9662623,16.2254839 60.0097715,15.1832258 60.3613298,13.5180645 L61.0778451,10.1496774 L61.8699678,10.1496774 L60.4745813,16.7083871" id="Fill-15"></path>
                <path d="M63.4286917,10.1496774 L64.1452071,10.1496774 L63.8182132,11.6625806 L63.8430966,11.6625806 C64.3458696,10.7219355 65.0375015,10.0480645 66.1939433,10.0609677 C66.3320782,10.0609677 66.483293,10.0609677 66.6211089,10.0735484 L66.4456488,10.8741935 C66.2944341,10.8741935 66.1435384,10.8616129 65.9929617,10.8616129 C64.5723727,10.8867742 63.8182132,12.0435484 63.554066,13.2764516 L62.8251089,16.7083871 L62.0329862,16.7083871 L63.4286917,10.1496774" id="Fill-16"></path>
                <path d="M66.9104586,12.1074194 C67.1242009,10.62 68.2551212,9.95903226 69.6505077,9.95903226 C70.5303604,9.95903226 71.9005445,10.2641935 71.9005445,11.4209677 C71.9005445,12.056129 71.6242745,13.0480645 71.4982623,13.6325806 C71.2092316,15.1067742 71.0710966,15.45 71.0710966,15.8441935 C71.0710966,16.0729032 71.2975997,16.1112903 71.4858206,16.1112903 C71.5990721,16.1112903 71.6871212,16.0983871 71.8003727,16.0854839 L71.6871212,16.7209677 C71.511023,16.7590323 71.2468758,16.7845161 71.0331334,16.7845161 C70.5935261,16.7845161 70.3545813,16.5048387 70.3418206,16.0729032 C70.3418206,15.9583871 70.3545813,15.8312903 70.367342,15.7170968 L70.3418206,15.6916129 C69.8894525,16.4541935 68.997158,16.8990323 68.0921028,16.8990323 C66.9104586,16.8990323 66.0178451,16.3654839 66.0178451,15.0812903 C66.0178451,13.6958065 67.1114402,13.2509677 68.2678819,13.0480645 C69.0976488,12.9206452 69.8266058,12.9841935 70.3293788,12.8570968 C70.8449126,12.73 71.1087408,12.4377419 71.1087408,11.5732258 C71.1087408,10.7980645 70.3418206,10.6325806 69.7385568,10.6325806 C68.7330107,10.6325806 67.8659187,11.0141935 67.7022623,12.1074194 L66.9104586,12.1074194 L66.9104586,12.1074194 Z M70.8324709,13.2003226 L70.8069494,13.1748387 C70.5555629,13.4925806 69.7765199,13.5180645 69.3739187,13.5435484 C68.4063359,13.6196774 66.8096488,13.6706452 66.8096488,15.0432258 C66.8096488,15.8822581 67.5009617,16.2254839 68.2551212,16.2254839 C69.5251334,16.2254839 70.3293788,15.45 70.5807653,14.306129 L70.8324709,13.2003226 L70.8324709,13.2003226 Z" id="Fill-17"></path>
                <polyline id="Fill-18" points="74.4523727 7.63290323 75.2444954 7.63290323 73.3083727 16.7083871 72.516888 16.7083871 74.4523727 7.63290323"></polyline>
                <path d="M86.2684954,10.5058065 C86.243293,8.98032258 85.2505077,8.17967742 83.7667531,8.17967742 C81.0646672,8.17967742 79.7570107,10.6454839 79.7570107,13.1112903 C79.7570107,14.9670968 80.8633666,16.1619355 82.7238819,16.1619355 C84.1565936,16.1619355 85.325796,15.196129 85.7657224,13.6070968 L86.6206917,13.6070968 C86.2056488,15.4629032 84.8858696,16.8990323 82.5854279,16.8990323 C80.247342,16.8990323 78.9023604,15.3229032 78.9023604,13.0348387 C78.9023604,10.1370968 80.6997101,7.44258065 83.7795138,7.44258065 C85.6652316,7.44258065 87.0982623,8.48483871 87.1234647,10.5058065 L86.2684954,10.5058065" id="Fill-19"></path>
                <path d="M88.1038083,12.1074194 C88.3175506,10.62 89.4487899,9.95903226 90.8441764,9.95903226 C91.7240291,9.95903226 93.0942132,10.2641935 93.0942132,11.4209677 C93.0942132,12.056129 92.8173052,13.0480645 92.691931,13.6325806 C92.4029003,15.1067742 92.2644463,15.45 92.2644463,15.8441935 C92.2644463,16.0729032 92.4906304,16.1112903 92.6794893,16.1112903 C92.7924218,16.1112903 92.8804709,16.0983871 92.9934034,16.0854839 L92.8804709,16.7209677 C92.7043727,16.7590323 92.4405445,16.7845161 92.2268022,16.7845161 C91.7868758,16.7845161 91.547931,16.5048387 91.5354893,16.0729032 C91.5354893,15.9583871 91.547931,15.8312903 91.5606917,15.7170968 L91.5354893,15.6916129 C91.0828022,16.4541935 90.1905077,16.8990323 89.2851334,16.8990323 C88.1038083,16.8990323 87.2111948,16.3654839 87.2111948,15.0812903 C87.2111948,13.6958065 88.3047899,13.2509677 89.4612316,13.0480645 C90.2909985,12.9206452 91.0202745,12.9841935 91.5227285,12.8570968 C92.0382623,12.73 92.3020905,12.4377419 92.3020905,11.5732258 C92.3020905,10.7980645 91.5354893,10.6325806 90.9319064,10.6325806 C89.9263604,10.6325806 89.0589494,11.0141935 88.895612,12.1074194 L88.1038083,12.1074194 L88.1038083,12.1074194 Z M92.0255015,13.2003226 L92.0006181,13.1748387 C91.7492316,13.4925806 90.9695506,13.5180645 90.5675874,13.5435484 C89.5996856,13.6196774 88.0033175,13.6706452 88.0033175,15.0432258 C88.0033175,15.8822581 88.6946304,16.2254839 89.4487899,16.2254839 C90.7181641,16.2254839 91.5227285,15.45 91.774115,14.306129 L92.0255015,13.2003226 L92.0255015,13.2003226 Z" id="Fill-20"></path>
                <path d="M95.1053052,10.1496774 L95.8221396,10.1496774 L95.4951457,11.6625806 L95.5200291,11.6625806 C96.0228022,10.7219355 96.714115,10.0480645 97.8708758,10.0609677 C98.0090107,10.0609677 98.1602255,10.0609677 98.2980414,10.0735484 L98.1219433,10.8741935 C97.9713666,10.8741935 97.8204709,10.8616129 97.6698942,10.8616129 C96.2493052,10.8867742 95.4951457,12.0435484 95.2309985,13.2764516 L94.5020414,16.7083871 L93.7099187,16.7083871 L95.1053052,10.1496774" id="Fill-21"></path>
                <path d="M98.8132561,13.6451613 C98.7880537,13.7977419 98.775612,13.9758065 98.775612,14.1535484 C98.775612,15.3354839 99.3791948,16.2254839 100.661011,16.2254839 C101.692078,16.2254839 102.483882,15.5516129 102.785673,14.5983871 L103.577477,14.5983871 C103.149992,16.06 102.157207,16.8990323 100.623367,16.8990323 C98.914066,16.8990323 97.9838083,15.8187097 97.9838083,14.1154839 C97.9838083,12.0435484 99.2659433,9.95903226 101.490778,9.95903226 C103.049821,9.95903226 103.954876,10.9887097 103.954876,12.513871 C103.954876,12.8825806 103.942115,13.2509677 103.89171,13.6451613 L98.8132561,13.6451613 L98.8132561,13.6451613 Z M103.149992,12.9712903 C103.149992,12.7935484 103.162753,12.6283871 103.162753,12.4632258 C103.162753,11.37 102.483882,10.6325806 101.390606,10.6325806 C100.082949,10.6325806 99.1906549,11.7512903 98.914066,12.9712903 L103.149992,12.9712903 L103.149992,12.9712903 Z" id="Fill-22"></path>
                <path d="M34.8315629,20.343871 L35.7618206,20.343871 L37.3958328,29.4193548 L36.5035384,29.4193548 L36.0508512,26.5970968 L31.9530598,26.5970968 L30.2938451,29.4193548 L29.338385,29.4193548 L34.8315629,20.343871 L34.8315629,20.343871 Z M32.3802255,25.86 L35.925158,25.86 L35.1585568,21.0809677 L35.1333543,21.0809677 L32.3802255,25.86 L32.3802255,25.86 Z" id="Fill-23"></path>
                <path d="M43.2536488,29.4193548 L42.5243727,29.4193548 L42.7508758,28.2241935 L42.7256733,28.2241935 C42.235342,28.9996774 41.3806917,29.6096774 40.4127899,29.6096774 C39.2815506,29.6096774 38.4517837,29.1012903 38.4517837,27.8432258 C38.4517837,27.6396774 38.4894279,27.3729032 38.5522745,27.0674194 L39.444888,22.8606452 L40.2366917,22.8606452 L39.3316365,27.0929032 C39.2815506,27.2964516 39.2435874,27.5380645 39.2435874,27.753871 C39.2435874,28.6183871 39.8972561,28.936129 40.6013298,28.936129 C41.7450107,28.936129 42.7885199,27.893871 43.1403972,26.2287097 L43.8569126,22.8606452 L44.6487163,22.8606452 L43.2536488,29.4193548" id="Fill-24"></path>
                <path d="M50.4436856,20.343871 L54.0639064,20.343871 C55.408888,20.343871 56.4520782,21.1825806 56.4520782,22.5806452 C56.4520782,24.4619355 55.1575015,25.5296774 53.3598328,25.5296774 L50.1922991,25.5296774 L49.3625322,29.4193548 L48.5078819,29.4193548 L50.4436856,20.343871 L50.4436856,20.343871 Z M50.3556365,24.7925806 L53.3850353,24.7925806 C54.6295261,24.7925806 55.5974279,24.0170968 55.5974279,22.7080645 C55.5974279,21.5006452 54.8684709,21.0809677 53.7748758,21.0809677 L51.1474402,21.0809677 L50.3556365,24.7925806 L50.3556365,24.7925806 Z" id="Fill-25"></path>
                <path d="M57.1433911,24.8180645 C57.3571334,23.3306452 58.4883727,22.67 59.8837592,22.67 C60.763612,22.67 62.133796,22.9748387 62.133796,24.1316129 C62.133796,24.7670968 61.8575261,25.7583871 61.7315138,26.3429032 C61.4424831,27.8177419 61.3040291,28.1606452 61.3040291,28.5548387 C61.3040291,28.7835484 61.5305322,28.8216129 61.7190721,28.8216129 C61.8323236,28.8216129 61.9200537,28.8090323 62.0333052,28.7964516 L61.9200537,29.4316129 C61.7442745,29.47 61.4801273,29.4954839 61.266385,29.4954839 C60.8264586,29.4954839 60.5875138,29.2158065 60.5750721,28.7835484 C60.5750721,28.6690323 60.5875138,28.5422581 60.6002745,28.4277419 L60.5750721,28.4022581 C60.122704,29.1648387 59.2300905,29.6096774 58.3250353,29.6096774 C57.1433911,29.6096774 56.2507776,29.0758065 56.2507776,27.7922581 C56.2507776,26.4067742 57.3446917,25.9619355 58.5011334,25.7583871 C59.3309003,25.6312903 60.0598574,25.6951613 60.5626304,25.5677419 C61.0778451,25.4409677 61.3419923,25.1483871 61.3419923,24.2841935 C61.3419923,23.5087097 60.5750721,23.3435484 59.9718083,23.3435484 C58.9659433,23.3435484 58.0985322,23.7248387 57.9355138,24.8180645 L57.1433911,24.8180645 L57.1433911,24.8180645 Z M61.0654034,25.9112903 L61.0402009,25.8854839 C60.7888144,26.2035484 60.0094525,26.2287097 59.6071703,26.2541935 C58.6392684,26.3303226 57.0429003,26.3809677 57.0429003,27.753871 C57.0429003,28.5929032 57.7342132,28.936129 58.4883727,28.936129 C59.758066,28.936129 60.5626304,28.1606452 60.8140169,27.0167742 L61.0654034,25.9112903 L61.0654034,25.9112903 Z" id="Fill-26"></path>
                <path d="M64.1452071,22.8606452 L64.9370107,22.8606452 L63.5416242,29.4193548 L62.7498206,29.4193548 L64.1452071,22.8606452 L64.1452071,22.8606452 Z M64.6856242,20.343871 L65.4774279,20.343871 L65.200839,21.6274194 L64.4090353,21.6274194 L64.6856242,20.343871 L64.6856242,20.343871 Z" id="Fill-27"></path>
                <path d="M66.4708512,22.8606452 L67.1870476,22.8606452 L66.8600537,24.3729032 L66.8852561,24.3729032 C67.3883482,23.4325806 68.0796611,22.7587097 69.2361028,22.7712903 C69.3742377,22.7712903 69.5251334,22.7712903 69.6632684,22.7841935 L69.4874893,23.5848387 C69.3365936,23.5848387 69.1856979,23.5722581 69.0351212,23.5722581 C67.6145322,23.5977419 66.8600537,24.7541935 66.5962255,25.9874194 L65.8672684,29.4193548 L65.0754647,29.4193548 L66.4708512,22.8606452" id="Fill-28"></path>
            </g>
        </g>
    </g>
</svg>