<?xml version="1.0" encoding="UTF-8" standalone="no"?>
<svg width="12px" height="20px" viewBox="0 0 12 20" version="1.1" xmlns="http://www.w3.org/2000/svg" xmlns:xlink="http://www.w3.org/1999/xlink">
    <!-- Generator: Sketch 39.1 (31720) - http://www.bohemiancoding.com/sketch -->
    <title>male</title>
    <desc>Created with Sketch.</desc>
    <defs></defs>
    <g id="Symbols" stroke="none" stroke-width="1" fill="none" fill-rule="evenodd">
        <g id="male" fill="#8DD1CB">
            <path d="M7.8,1.76470588 C7.8,2.73932353 6.99411,3.52941176 6,3.52941176 C5.00589,3.52941176 4.2,2.73932353 4.2,1.76470588 C4.2,0.790088235 5.00589,0 6,0 C6.99411,0 7.8,0.790088235 7.8,1.76470588 Z M9.96,10.9411765 C10.08,11.2941176 10.44,11.4705882 10.8,11.4705882 C10.92,11.4705882 11.04,11.4705882 11.16,11.4117647 C11.64,11.2352941 11.82,10.7058824 11.64,10.2352941 L9.24,4.64705882 C9.06,4.29411765 8.76,4.11764706 8.4,4.11764706 L3.6,4.11764706 C3.24,4.11764706 2.94,4.29411765 2.76,4.64705882 L0.36,10.2352941 C0.18,10.7058824 0.36,11.1764706 0.8400006,11.4117647 C0.96,11.4705882 1.08,11.4705882 1.2,11.4705882 C1.56,11.4705882 1.86,11.2941176 2.04,10.9411765 L3.6,7.29411765 L3.6,10.1764706 L3.6,16.4705882 L3.6,19.1176471 C3.6,19.5882347 4.02,20 4.5,20 C4.98,20 5.4,19.5882347 5.4,19.1176471 L5.4,14.4705882 L6.6,14.4705882 L6.6,19.1176471 C6.6,19.5882347 7.02,20 7.5,20 C7.98,20 8.4,19.5882347 8.4,19.1176471 L8.4,16.4705882 L8.4,9.82352941 L8.4,7.29411765 L9.96,10.9411765 Z" id="Combined-Shape"></path>
        </g>
    </g>
</svg>