<?xml version="1.0" encoding="UTF-8" standalone="no"?>
<svg width="20px" height="20px" viewBox="0 0 20 20" version="1.1" xmlns="http://www.w3.org/2000/svg" xmlns:xlink="http://www.w3.org/1999/xlink">
    <!-- Generator: Sketch 39.1 (31720) - http://www.bohemiancoding.com/sketch -->
    <title>search</title>
    <desc>Created with Sketch.</desc>
    <defs></defs>
    <g id="Symbols" stroke="none" stroke-width="1" fill="none" fill-rule="evenodd">
        <g id="search" fill="#FFFFFF">
            <path d="M14.2938822,12.5786164 L13.3847913,12.5786164 L13.0703259,12.2641509 C14.1909663,10.9662664 14.8656375,9.27958834 14.8656375,7.43281875 C14.8656375,3.32761578 11.5380217,8.8817842e-15 7.43281875,8.8817842e-15 C3.32761578,8.8817842e-15 0,3.32761578 0,7.43281875 C0,11.5380217 3.32761578,14.8656375 7.43281875,14.8656375 C9.27958834,14.8656375 10.9662664,14.1909663 12.2641509,13.0760435 L12.5786164,13.3905089 L12.5786164,14.2938822 L18.2961692,20 L20,18.2961692 L14.2938822,12.5786164 L14.2938822,12.5786164 Z M7.43281875,12.5786164 C4.59119497,12.5786164 2.28702115,10.2744425 2.28702115,7.43281875 C2.28702115,4.59119497 4.59119497,2.28702115 7.43281875,2.28702115 C10.2744425,2.28702115 12.5786164,4.59119497 12.5786164,7.43281875 C12.5786164,10.2744425 10.2744425,12.5786164 7.43281875,12.5786164 L7.43281875,12.5786164 Z" id="Page-1"></path>
        </g>
    </g>
</svg>