<svg style="position: absolute; width: 0; height: 0; overflow: hidden;" version="1.1" xmlns="http://www.w3.org/2000/svg" xmlns:xlink="http://www.w3.org/1999/xlink">
<defs>
<symbol id="icon-logo" viewBox="0 0 111 32">
<title>logo</title>
<path d="M8.143 0.121c-4.284 0.172-8.145 3.099-8.078 7.208 2.393-2.699 5.116-5.127 8.078-7.208z"/>
<path d="M0.089 7.812c0.11 1.43 0.526 2.915 1.165 4.415 3.257-4.351 7.467-8.059 12.207-10.774-1.49-0.887-3.123-1.305-4.721-1.337-3.192 2.192-6.115 4.789-8.651 7.696z"/>
<path d="M15.435 25.807c-0.289 1.292-0.258 2.547 0.071 3.688 1.682 1.467 2.811 2.348 2.849 2.382v0.007l0.004-0.003 0.003 0.003c0 0 0.479-0.428 1.259-1.171-0.281-0.228-0.54-0.478-0.761-0.76-0.911-1.159-1.215-2.659-0.856-4.222 0.783-3.415 4.519-6.194 8.326-6.194 0.962 0 1.864 0.183 2.654 0.522 0.53-0.757 1.031-1.524 1.494-2.295-1.061-0.453-2.268-0.696-3.553-0.696-5.256 0-10.41 3.921-11.489 8.74z"/>
<path d="M9.345 23.594c0.88 0.932 1.758 1.814 2.602 2.631 0.029-0.164 0.058-0.328 0.093-0.493 1.459-6.803 8.419-12.339 15.515-12.339 1.705 0 3.287 0.316 4.688 0.914 0.241-0.589 0.448-1.173 0.609-1.746 0.152-0.541 0.253-1.069 0.315-1.583-1.492-0.496-3.124-0.757-4.859-0.757-8.184 0-16.221 5.824-18.964 13.372z"/>
<path d="M12.372 25.805c-0.051 0.237-0.092 0.472-0.128 0.707 1.012 0.971 1.967 1.841 2.809 2.586-0.224-1.060-0.212-2.2 0.049-3.367 1.112-4.967 6.415-9.009 11.821-9.009 1.35 0 2.618 0.259 3.732 0.743 0.558-0.951 1.047-1.902 1.451-2.842-1.359-0.58-2.896-0.886-4.553-0.886-6.944 0-13.755 5.413-15.182 12.067z"/>
<path d="M1.411 12.586c0.613 1.364 1.403 2.738 2.307 4.088 3.139-5.027 7.777-9.223 13.101-11.929-0.863-1.332-1.899-2.35-3.028-3.085-4.822 2.73-9.1 6.495-12.38 10.926z"/>
<path d="M21.718 25.808c-0.161 0.704-0.027 1.376 0.379 1.892 0.079 0.1 0.169 0.19 0.265 0.275 1.333-1.389 2.853-3.065 4.328-4.887-0.322-0.114-0.678-0.177-1.058-0.177-1.791 0-3.547 1.3-3.915 2.898z"/>
<path d="M3.927 16.982c0.797 1.166 1.674 2.314 2.592 3.424 4.152-8.278 13.278-14.366 22.557-14.366 1.116 0 2.198 0.091 3.242 0.261-2.075-3.465-7.464-4.253-14.179 1.102-0.324-0.877-0.707-1.664-1.136-2.369-5.328 2.7-9.964 6.907-13.076 11.949z"/>
<path d="M18.334 25.808c-0.335 1.459-0.054 2.855 0.791 3.93 0.215 0.274 0.467 0.517 0.743 0.736 0.619-0.596 1.395-1.362 2.257-2.254-0.106-0.095-0.207-0.196-0.294-0.307-0.472-0.6-0.629-1.376-0.444-2.184 0.401-1.745 2.306-3.164 4.246-3.164 0.462 0 0.896 0.085 1.283 0.239 0.638-0.798 1.264-1.621 1.86-2.459-0.732-0.302-1.561-0.467-2.448-0.467-3.659 0-7.245 2.659-7.995 5.928z"/>
<path d="M6.755 20.69c0.759 0.906 1.542 1.784 2.327 2.624 2.848-7.598 10.965-13.436 19.227-13.436 1.744 0 3.389 0.258 4.895 0.75 0.125-1.486-0.119-2.83-0.676-3.941-1.107-0.196-2.259-0.303-3.451-0.303-9.205 0-18.259 6.072-22.321 14.306z"/>
<path d="M44.401 11.322c-0.027-1.627-1.086-2.481-2.668-2.481-2.882 0-4.277 2.63-4.277 5.26 0 1.979 1.18 3.254 3.164 3.254 1.528 0 2.775-1.030 3.244-2.725h0.912c-0.443 1.979-1.85 3.511-4.304 3.511-2.494 0-3.928-1.681-3.928-4.121 0-3.091 1.917-5.965 5.202-5.965 2.011 0 3.539 1.112 3.567 3.267h-0.912z"/>
<path d="M50.917 17.937h-0.778l0.242-1.274h-0.027c-0.523 0.827-1.435 1.478-2.467 1.478-1.207 0-2.092-0.542-2.092-1.884 0-0.217 0.040-0.502 0.107-0.827l0.952-4.487h0.845l-0.965 4.514c-0.054 0.217-0.094 0.474-0.094 0.705 0 0.922 0.697 1.261 1.448 1.261 1.22 0 2.333-1.112 2.708-2.888l0.764-3.593h0.845l-1.488 6.995z"/>
<path d="M54.644 8.258h0.845l-2.065 9.68h-0.845l2.065-9.68z"/>
<path d="M55.783 10.942h1.247l0.442-2.115h0.845l-0.442 2.115h1.381l-0.134 0.719h-1.408l-0.952 4.487c-0.067 0.325-0.094 0.447-0.094 0.664 0 0.244 0.121 0.488 0.443 0.488 0.335 0 0.657-0.028 0.992-0.082l-0.148 0.746c-0.281 0.027-0.576 0.054-0.858 0.054-0.63 0-1.274-0.162-1.274-1.003 0-0.149 0.027-0.407 0.094-0.718l0.952-4.636h-1.247l0.161-0.719z"/>
<path d="M64.565 17.937h-0.778l0.242-1.274h-0.027c-0.523 0.827-1.434 1.478-2.467 1.478-1.207 0-2.092-0.542-2.092-1.884 0-0.217 0.040-0.502 0.107-0.827l0.952-4.487h0.845l-0.965 4.514c-0.054 0.217-0.094 0.474-0.094 0.705 0 0.922 0.697 1.261 1.448 1.261 1.22 0 2.333-1.112 2.708-2.888l0.764-3.593h0.845l-1.488 6.995z"/>
<path d="M67.716 10.942h0.764l-0.349 1.614h0.027c0.536-1.003 1.274-1.722 2.507-1.708 0.147 0 0.309 0 0.456 0.013l-0.187 0.854c-0.161 0-0.322-0.013-0.483-0.013-1.515 0.027-2.32 1.261-2.601 2.576l-0.778 3.66h-0.845l1.489-6.995z"/>
<path d="M71.429 13.030c0.228-1.586 1.434-2.291 2.922-2.291 0.938 0 2.4 0.325 2.4 1.559 0 0.677-0.295 1.735-0.429 2.359-0.308 1.572-0.456 1.938-0.456 2.359 0 0.244 0.242 0.285 0.442 0.285 0.121 0 0.215-0.014 0.335-0.028l-0.121 0.678c-0.188 0.041-0.47 0.068-0.698 0.068-0.469 0-0.724-0.298-0.737-0.759 0-0.122 0.014-0.258 0.027-0.38l-0.027-0.027c-0.483 0.813-1.434 1.288-2.399 1.288-1.26 0-2.212-0.569-2.212-1.939 0-1.478 1.166-1.952 2.4-2.169 0.885-0.136 1.662-0.068 2.199-0.204 0.55-0.136 0.831-0.447 0.831-1.369 0-0.827-0.818-1.003-1.461-1.003-1.073 0-1.997 0.407-2.172 1.573h-0.845zM75.612 14.196l-0.027-0.027c-0.268 0.339-1.099 0.366-1.528 0.393-1.032 0.081-2.735 0.136-2.735 1.6 0 0.895 0.737 1.261 1.542 1.261 1.355 0 2.212-0.827 2.48-2.047l0.268-1.179z"/>
<path d="M79.473 8.258h0.845l-2.065 9.68h-0.844l2.064-9.68z"/>
<path d="M92.076 11.322c-0.027-1.627-1.086-2.481-2.668-2.481-2.882 0-4.277 2.63-4.277 5.26 0 1.979 1.18 3.254 3.164 3.254 1.528 0 2.775-1.030 3.244-2.725h0.912c-0.443 1.979-1.85 3.511-4.304 3.511-2.494 0-3.928-1.681-3.928-4.121 0-3.091 1.917-5.965 5.202-5.965 2.011 0 3.54 1.112 3.567 3.267h-0.912z"/>
<path d="M94.033 13.030c0.228-1.586 1.435-2.291 2.923-2.291 0.938 0 2.4 0.325 2.4 1.559 0 0.677-0.295 1.735-0.429 2.359-0.308 1.572-0.456 1.938-0.456 2.359 0 0.244 0.241 0.285 0.443 0.285 0.12 0 0.214-0.014 0.335-0.028l-0.12 0.678c-0.188 0.041-0.469 0.068-0.697 0.068-0.469 0-0.724-0.298-0.737-0.759 0-0.122 0.013-0.258 0.027-0.38l-0.027-0.027c-0.483 0.813-1.435 1.288-2.4 1.288-1.26 0-2.212-0.569-2.212-1.939 0-1.478 1.166-1.952 2.4-2.169 0.885-0.136 1.663-0.068 2.199-0.204 0.55-0.136 0.831-0.447 0.831-1.369 0-0.827-0.818-1.003-1.461-1.003-1.073 0-1.998 0.407-2.172 1.573h-0.845zM98.216 14.196l-0.027-0.027c-0.268 0.339-1.1 0.366-1.528 0.393-1.032 0.081-2.735 0.136-2.735 1.6 0 0.895 0.737 1.261 1.542 1.261 1.354 0 2.212-0.827 2.48-2.047l0.268-1.179z"/>
<path d="M101.501 10.942h0.765l-0.349 1.614h0.027c0.536-1.003 1.274-1.722 2.507-1.708 0.147 0 0.309 0 0.456 0.013l-0.188 0.854c-0.161 0-0.322-0.013-0.482-0.013-1.515 0.027-2.32 1.261-2.601 2.576l-0.778 3.66h-0.845l1.488-6.995z"/>
<path d="M105.456 14.67c-0.027 0.163-0.040 0.353-0.040 0.542 0 1.261 0.644 2.21 2.011 2.21 1.1 0 1.944-0.719 2.266-1.735h0.845c-0.456 1.559-1.515 2.454-3.151 2.454-1.823 0-2.815-1.152-2.815-2.969 0-2.21 1.368-4.433 3.74-4.433 1.663 0 2.628 1.098 2.628 2.725 0 0.393-0.014 0.786-0.067 1.207h-5.417zM110.081 13.951c0-0.19 0.014-0.366 0.014-0.542 0-1.166-0.724-1.953-1.89-1.953-1.395 0-2.346 1.193-2.641 2.494h4.518z"/>
<path d="M37.215 21.815h0.992l1.743 9.68h-0.952l-0.483-3.010h-4.371l-1.77 3.010h-1.019l5.859-9.68zM34.6 27.698h3.781l-0.818-5.097h-0.027l-2.936 5.097z"/>
<path d="M46.197 31.494h-0.778l0.242-1.275h-0.027c-0.523 0.827-1.435 1.478-2.467 1.478-1.207 0-2.092-0.542-2.092-1.884 0-0.217 0.040-0.502 0.107-0.827l0.952-4.487h0.845l-0.965 4.514c-0.053 0.217-0.094 0.475-0.094 0.705 0 0.922 0.697 1.261 1.448 1.261 1.22 0 2.333-1.112 2.708-2.888l0.764-3.592h0.845l-1.488 6.995z"/>
<path d="M53.866 21.815h3.861c1.435 0 2.547 0.895 2.547 2.386 0 2.007-1.381 3.145-3.298 3.145h-3.378l-0.885 4.149h-0.912l2.065-9.68zM53.772 26.56h3.231c1.327 0 2.36-0.827 2.36-2.223 0-1.288-0.778-1.735-1.944-1.735h-2.802l-0.845 3.959z"/>
<path d="M61.012 26.587c0.228-1.586 1.435-2.291 2.923-2.291 0.938 0 2.4 0.325 2.4 1.559 0 0.678-0.295 1.735-0.429 2.359-0.308 1.573-0.456 1.939-0.456 2.359 0 0.244 0.242 0.285 0.443 0.285 0.121 0 0.214-0.013 0.335-0.027l-0.121 0.677c-0.187 0.041-0.469 0.068-0.697 0.068-0.469 0-0.724-0.298-0.737-0.759 0-0.122 0.013-0.257 0.027-0.38l-0.027-0.027c-0.483 0.813-1.435 1.288-2.4 1.288-1.26 0-2.212-0.569-2.212-1.938 0-1.478 1.167-1.952 2.4-2.169 0.885-0.136 1.662-0.067 2.199-0.203 0.549-0.135 0.831-0.447 0.831-1.369 0-0.827-0.818-1.003-1.461-1.003-1.073 0-1.998 0.407-2.172 1.573h-0.845zM65.195 27.753l-0.027-0.028c-0.268 0.339-1.099 0.366-1.528 0.393-1.032 0.081-2.735 0.135-2.735 1.6 0 0.895 0.737 1.261 1.542 1.261 1.354 0 2.212-0.827 2.48-2.047l0.268-1.179z"/>
<path d="M68.48 24.499h0.845l-1.488 6.995h-0.845l1.488-6.995zM69.056 21.815h0.845l-0.295 1.369h-0.845l0.295-1.369z"/>
<path d="M70.96 24.499h0.764l-0.349 1.613h0.027c0.537-1.003 1.274-1.722 2.507-1.708 0.147 0 0.308 0 0.456 0.014l-0.187 0.854c-0.161 0-0.322-0.013-0.483-0.013-1.515 0.027-2.32 1.261-2.601 2.576l-0.778 3.66h-0.845l1.488-6.995z"/>
</symbol>
<symbol id="icon-triangle" viewBox="0 0 43 32">
<title>triangle</title>
<path d="M-0 0.004h42.656l-21.328 31.992z"/>
</symbol>
<symbol id="icon-alert" viewBox="0 0 28 32">
<title>alert</title>
<path d="M11.121 28.968c0 1.676 1.344 3.032 3.004 3.032s3.004-1.356 3.004-3.032h-6.008zM24.511 22.583v-8.869c0-4.952-3.397-9.097-7.986-10.194v-1.097c0-1.341-1.072-2.423-2.4-2.423s-2.4 1.082-2.4 2.423v1.097c-4.589 1.097-7.986 5.242-7.986 10.194v8.869l-3.2 3.23v1.615h27.174v-1.615l-3.2-3.23z"/>
</symbol>
<symbol id="icon-search" viewBox="0 0 32 32">
<title>search</title>
<path d="M22.87 20.126h-1.455l-0.503-0.503c1.793-2.077 2.872-4.775 2.872-7.73 0-6.568-5.324-11.893-11.893-11.893s-11.893 5.324-11.893 11.893c0 6.568 5.324 11.892 11.893 11.892 2.955 0 5.654-1.079 7.73-2.863l0.503 0.503v1.445l9.148 9.13 2.726-2.726-9.13-9.148zM11.892 20.126c-4.547 0-8.233-3.687-8.233-8.233s3.687-8.233 8.233-8.233c4.547 0 8.233 3.687 8.233 8.233s-3.687 8.233-8.233 8.233v0z"/>
</symbol>
<symbol id="icon-age" viewBox="0 0 26 32">
<title>age</title>
<path d="M12.79 8.729c1.57 0 2.842-1.301 2.842-2.908 0-0.545-0.149-1.062-0.405-1.498l-2.437-4.319-2.437 4.319c-0.256 0.436-0.405 0.952-0.405 1.498 0 1.607 1.272 2.908 2.842 2.908v0zM19.32 23.249l-1.528-1.563-1.535 1.563c-1.855 1.898-5.095 1.898-6.949 0l-1.528-1.563-1.535 1.563c-0.917 0.953-2.146 1.476-3.46 1.476-1.030 0-1.99-0.334-2.785-0.894v6.711c0 0.8 0.639 1.454 1.421 1.454h22.737c0.782 0 1.421-0.654 1.421-1.454v-6.711c-0.796 0.56-1.748 0.894-2.785 0.894-1.314 0-2.544-0.523-3.475-1.476v0zM21.316 13.092h-7.105v-2.908h-2.842v2.908h-7.105c-2.352 0-4.263 1.956-4.263 4.363v2.239c0 1.571 1.251 2.85 2.785 2.85 0.746 0 1.442-0.298 1.968-0.836l3.041-3.105 3.034 3.097c1.052 1.076 2.885 1.076 3.936 0l3.041-3.097 3.034 3.097c0.526 0.538 1.222 0.836 1.968 0.836 1.535 0 2.785-1.28 2.785-2.85v-2.232c-0.014-2.407-1.926-4.363-4.277-4.363v0z"/>
</symbol>
<symbol id="icon-female" viewBox="0 0 19 32">
<title>female</title>
<path d="M12.474 2.824c0 1.559-1.289 2.824-2.88 2.824s-2.88-1.264-2.88-2.824c0-1.559 1.289-2.824 2.88-2.824s2.88 1.264 2.88 2.824zM13.434 11.671l2.496 5.835c0.192 0.565 0.768 0.847 1.344 0.847 0.192 0 0.384 0 0.576-0.094 0.768-0.282 1.056-1.129 0.768-1.882l-3.84-8.941c-0.288-0.565-0.768-0.847-1.344-0.847h-7.68c-0.576 0-1.056 0.282-1.344 0.847l-3.84 8.941c-0.288 0.753 0 1.506 0.768 1.882 0.192 0.094 0.384 0.094 0.576 0.094 0.576 0 1.056-0.282 1.344-0.847l2.496-5.835v4.612l-4.608 10.071h4.608v4.235c0 0.753 0.672 1.412 1.44 1.412s1.44-0.659 1.44-1.412v-4.235h1.92v4.235c0 0.753 0.672 1.412 1.44 1.412s1.44-0.659 1.44-1.412v-4.235h4.8l-4.8-10.635v-4.047z"/>
</symbol>
<symbol id="icon-male" viewBox="0 0 19 32">
<title>male</title>
<path d="M12.474 2.824c0 1.559-1.289 2.824-2.88 2.824s-2.88-1.264-2.88-2.824c0-1.559 1.289-2.824 2.88-2.824s2.88 1.264 2.88 2.824zM15.93 17.506c0.192 0.565 0.768 0.847 1.344 0.847 0.192 0 0.384 0 0.576-0.094 0.768-0.282 1.056-1.129 0.768-1.882l-3.84-8.941c-0.288-0.565-0.768-0.847-1.344-0.847h-7.68c-0.576 0-1.056 0.282-1.344 0.847l-3.84 8.941c-0.288 0.753 0 1.506 0.768 1.882 0.192 0.094 0.384 0.094 0.576 0.094 0.576 0 1.056-0.282 1.344-0.847l2.496-5.835v18.918c0 0.753 0.672 1.412 1.44 1.412s1.44-0.659 1.44-1.412v-7.435h1.92v7.435c0 0.753 0.672 1.412 1.44 1.412s1.44-0.659 1.44-1.412v-18.918l2.496 5.835z"/>
</symbol>
<symbol id="icon-full-star" viewBox="0 0 34 32">
<title>full-star</title>
<path d="M17.234 26.534l-10.397 5.466 1.986-11.578-8.412-8.199 11.625-1.689 5.199-10.534 5.199 10.534 11.625 1.689-8.412 8.199 1.986 11.578z"/>
</symbol>
<symbol id="icon-empty-star" viewBox="0 0 34 32">
<title>empty-star</title>
<path d="M16.058 24.297l1.176-0.618 9.859 5.183 0.327 1.909-0.893 0.649-1.714-0.901-1.883-10.978 7.976-7.775 1.916 0.278 0.341 1.050-1.387 1.352-11.023-1.602-4.93-9.989 0.857-1.737h1.104l0.857 1.737-4.93 9.989-11.023 1.602-1.387-1.352 0.341-1.050 1.916-0.278 7.976 7.775-1.883 10.978-1.714 0.901-0.893-0.649 0.327-1.909 8.683-4.565zM6.837 32l1.986-11.578-8.412-8.199 11.625-1.689 5.199-10.534 5.199 10.534 11.625 1.689-8.412 8.199 1.986 11.578-10.397-5.466-10.397 5.466z"/>
</symbol>
<symbol id="icon-quote" viewBox="0 0 32 32">
<title>quote</title>
<path fill="#1a1a1a" d="M32 16c0 8.837-7.163 16-16 16s-16-7.163-16-16c0-8.837 7.163-16 16-16s16 7.163 16 16z"/>
<path fill="#fff" d="M23.64 11.902c-0.639 0.326-1.233 0.656-1.783 0.988s-1.022 0.662-1.416 0.988c-0.462 0.394-0.842 0.815-1.141 1.264s-0.557 1.026-0.774 1.732h0.876c0.856 0 1.471 0.211 1.844 0.632s0.56 0.89 0.56 1.406c0 0.652-0.251 1.274-0.754 1.865s-1.189 0.887-2.058 0.887c-0.924 0-1.607-0.258-2.048-0.774s-0.662-1.196-0.662-2.038c0-1.101 0.238-2.099 0.713-2.996s1.073-1.698 1.793-2.405c0.707-0.679 1.444-1.243 2.211-1.692s1.444-0.829 2.028-1.141l0.611 1.284zM16.099 11.902c-0.639 0.326-1.233 0.656-1.783 0.988s-1.022 0.662-1.416 0.988c-0.462 0.394-0.842 0.815-1.141 1.264s-0.557 1.026-0.774 1.732h0.876c0.856 0 1.471 0.211 1.844 0.632s0.56 0.89 0.56 1.406c0 0.652-0.251 1.274-0.754 1.865s-1.189 0.887-2.058 0.887c-0.924 0-1.607-0.258-2.048-0.774s-0.662-1.196-0.662-2.038c0-1.101 0.238-2.099 0.713-2.996s1.073-1.698 1.793-2.405c0.707-0.679 1.444-1.243 2.211-1.692s1.444-0.829 2.028-1.141l0.611 1.284z"/>
</symbol>
</defs>
</svg>
