<?xml version="1.0" encoding="UTF-8" standalone="no"?>
<svg width="46px" height="46px" viewBox="0 0 46 46" version="1.1" xmlns="http://www.w3.org/2000/svg" xmlns:xlink="http://www.w3.org/1999/xlink">
    <!-- Generator: Sketch 39.1 (31720) - http://www.bohemiancoding.com/sketch -->
    <title>Icons / Quote</title>
    <desc>Created with Sketch.</desc>
    <defs></defs>
    <g id="Symbols" stroke="none" stroke-width="1" fill="none" fill-rule="evenodd">
        <g id="Icons-/-Quote">
            <ellipse id="Oval-11" fill="#1A1A1A" cx="23" cy="23" rx="23" ry="23"></ellipse>
            <path d="M33.9824219,17.109375 C33.0644485,17.5781273 32.2099649,18.0517554 31.4189453,18.5302734 C30.6279257,19.0087915 29.9492216,19.4824195 29.3828125,19.9511719 C28.7187467,20.517581 28.1718771,21.1230437 27.7421875,21.7675781 C27.3124979,22.4121126 26.9414078,23.2421824 26.6289062,24.2578125 L27.8886719,24.2578125 C29.1191468,24.2578125 30.002927,24.5605438 30.5400391,25.1660156 C31.0771511,25.7714874 31.3457031,26.4453088 31.3457031,27.1875 C31.3457031,28.1250047 30.9843786,29.0185504 30.2617188,29.8681641 C29.5390589,30.7177777 28.5527406,31.1425781 27.3027344,31.1425781 C25.9746027,31.1425781 24.9931672,30.7714881 24.3583984,30.0292969 C23.7236296,29.2871057 23.40625,28.3105529 23.40625,27.0996094 C23.40625,25.5175702 23.7480435,24.0820377 24.4316406,22.7929687 C25.1152378,21.5038998 25.9746042,20.3515676 27.0097656,19.3359375 C28.0253957,18.3593701 29.0849554,17.5488313 30.1884766,16.9042969 C31.2919977,16.2597624 32.2636677,15.7128929 33.1035156,15.2636719 L33.9824219,17.109375 Z M23.1425781,17.109375 C22.2246048,17.5781273 21.3701211,18.0517554 20.5791016,18.5302734 C19.788082,19.0087915 19.1093778,19.4824195 18.5429688,19.9511719 C17.8789029,20.517581 17.3320334,21.1230437 16.9023438,21.7675781 C16.4726541,22.4121126 16.1015641,23.2421824 15.7890625,24.2578125 L17.0488281,24.2578125 C18.279303,24.2578125 19.1630833,24.5605438 19.7001953,25.1660156 C20.2373074,25.7714874 20.5058594,26.4453088 20.5058594,27.1875 C20.5058594,28.1250047 20.1445349,29.0185504 19.421875,29.8681641 C18.6992151,30.7177777 17.7128969,31.1425781 16.4628906,31.1425781 C15.134759,31.1425781 14.1533235,30.7714881 13.5185547,30.0292969 C12.8837859,29.2871057 12.5664062,28.3105529 12.5664062,27.0996094 C12.5664062,25.5175702 12.9081997,24.0820377 13.5917969,22.7929687 C14.275394,21.5038998 15.1347604,20.3515676 16.1699219,19.3359375 C17.185552,18.3593701 18.2451117,17.5488313 19.3486328,16.9042969 C20.452154,16.2597624 21.4238239,15.7128929 22.2636719,15.2636719 L23.1425781,17.109375 Z" id="“" fill="#FFFFFF"></path>
        </g>
    </g>
</svg>